<svg width="22" height="19" viewBox="0 0 22 19" fill="none" xmlns="http://www.w3.org/2000/svg">
<path fill-rule="evenodd" clip-rule="evenodd" d="M18.875 4.5C17.4253 4.5 16.25 5.67525 16.25 7.125C16.25 8.57475 17.4253 9.75 18.875 9.75C20.3247 9.75 21.5 8.57475 21.5 7.125C21.5 5.67525 20.3247 4.5 18.875 4.5ZM18.875 8.25C18.2537 8.25 17.75 7.74632 17.75 7.125C17.75 6.50368 18.2537 6 18.875 6C19.4963 6 20 6.50368 20 7.125C20 7.74632 19.4963 8.25 18.875 8.25ZM5.75 7.125C5.75 5.67525 4.57475 4.5 3.125 4.5C1.67525 4.5 0.5 5.67525 0.5 7.125C0.5 8.57475 1.67525 9.75 3.125 9.75C4.57475 9.75 5.75 8.57475 5.75 7.125ZM3.125 8.25C2.50368 8.25 2 7.74632 2 7.125C2 6.50368 2.50368 6 3.125 6C3.74632 6 4.25 6.50368 4.25 7.125C4.25 7.74632 3.74632 8.25 3.125 8.25ZM7.625 5.25C9.07475 5.25 10.25 4.07475 10.25 2.625C10.25 1.17525 9.07475 0 7.625 0C6.17525 0 5 1.17525 5 2.625C5 4.07475 6.17525 5.25 7.625 5.25ZM7.625 1.5C8.24632 1.5 8.75 2.00368 8.75 2.625C8.75 3.24632 8.24632 3.75 7.625 3.75C7.00368 3.75 6.5 3.24632 6.5 2.625C6.5 2.00368 7.00368 1.5 7.625 1.5ZM14.375 5.25C15.8247 5.25 17 4.07475 17 2.625C17 1.17525 15.8247 0 14.375 0C12.9253 0 11.75 1.17525 11.75 2.625C11.75 4.07475 12.9253 5.25 14.375 5.25ZM14.375 1.5C14.9963 1.5 15.5 2.00368 15.5 2.625C15.5 3.24632 14.9963 3.75 14.375 3.75C13.7537 3.75 13.25 3.24632 13.25 2.625C13.25 2.00368 13.7537 1.5 14.375 1.5ZM16.5425 10.9556C15.7731 10.5312 15.2041 9.81815 14.9609 8.97375C14.4487 7.21214 12.8346 6.00053 11 6.00053C9.16542 6.00053 7.55131 7.21214 7.03906 8.97375C6.79818 9.81503 6.23345 10.5264 5.46875 10.9519C3.9596 11.7685 3.19724 13.5052 3.61768 15.1688C4.03812 16.8324 5.53409 17.9985 7.25 18C7.74984 18.0014 8.24479 17.9016 8.705 17.7066C10.1722 17.1015 11.8193 17.1015 13.2866 17.7066C15.1334 18.5098 17.2848 17.7108 18.1598 15.8969C19.0347 14.083 18.3207 11.901 16.5425 10.9556ZM14.75 16.5C14.4455 16.5003 14.1441 16.4387 13.8641 16.3191C12.0271 15.5603 9.96442 15.5603 8.1275 16.3191C7.01824 16.7967 5.72976 16.3134 5.20827 15.224C4.68677 14.1347 5.11829 12.828 6.18594 12.2634C7.3016 11.6473 8.12655 10.6129 8.47906 9.38813C8.80464 8.26652 9.83209 7.4949 11 7.4949C12.1679 7.4949 13.1954 8.26652 13.5209 9.38813C13.8746 10.6152 14.702 11.6511 15.8206 12.2672C16.7308 12.7553 17.1917 13.8005 16.9385 14.8017C16.6852 15.803 15.7828 16.5033 14.75 16.5Z" fill="#0D1C17"/>
</svg>
