<svg width="24" height="24" viewBox="0 0 24 24" fill="none" xmlns="http://www.w3.org/2000/svg">
<g clip-path="url(#clip0_4_88)">
<path fill-rule="evenodd" clip-rule="evenodd" d="M22.86 7.14281C22.514 6.84111 22.02 6.77816 21.6094 6.98344L16.9022 9.32719L12.9722 2.79938C12.7667 2.45867 12.3979 2.2504 12 2.2504C11.6021 2.2504 11.2333 2.45867 11.0278 2.79938L7.09781 9.33L2.3925 6.98625C1.98295 6.78285 1.49135 6.84502 1.14532 7.14395C0.799287 7.44289 0.666376 7.92025 0.808125 8.355L4.27688 18.9825C4.34752 19.1988 4.51251 19.3713 4.72541 19.4515C4.93831 19.5317 5.1761 19.5109 5.37187 19.395C5.39531 19.3809 7.7925 18 12 18C16.2075 18 18.6047 19.3809 18.6262 19.3941C18.8221 19.5111 19.0606 19.5326 19.2742 19.4525C19.4878 19.3724 19.6534 19.1994 19.7241 18.9825L23.1928 8.35781C23.3387 7.9228 23.2072 7.44277 22.86 7.14281ZM18.5625 17.7028C17.4375 17.2256 15.195 16.5 12 16.5C8.805 16.5 6.5625 17.2256 5.4375 17.7028L2.50406 8.71875L6.72937 10.8253C7.25952 11.0868 7.90155 10.9 8.20875 10.395L12 4.09312L15.7913 10.3931C16.0987 10.8972 16.7397 11.0838 17.2697 10.8234L21.4959 8.71875L18.5625 17.7028ZM16.4878 14.7028C16.4246 15.0609 16.1136 15.3221 15.75 15.3225C15.706 15.3224 15.6621 15.3187 15.6187 15.3112C13.2231 14.9 10.775 14.9 8.37938 15.3112C7.97137 15.3832 7.58228 15.1108 7.51031 14.7028C7.43834 14.2948 7.71075 13.9057 8.11875 13.8337C10.6868 13.3925 13.3113 13.3925 15.8794 13.8337C16.2865 13.9052 16.559 14.2927 16.4888 14.7L16.4878 14.7028Z" fill="#0D1C17"/>
</g>
<defs>
<clipPath id="clip0_4_88">
<rect width="24" height="24" fill="white"/>
</clipPath>
</defs>
</svg>
